# AST/ASF file generated using VICON BodyLanguage
# -----------------------------------------------
:version 1.10
:name VICON
:units
  mass 1.0
  length 0.45
  angle deg
:documentation
   .ast/.asf automatically generated from VICON data using
   VICON BodyBuilder and BodyLanguage model FoxedUp or BRILLIANT.MOD
:root
   order TX TY TZ RX RY RZ
   axis XYZ
   position 0 0 0  
   orientation 0 0 0 
:bonedata
  begin
     id 1 
     name lhipjoint
     direction 0.630082 -0.636569 0.44472 
     length 2.82754 
     axis 0 0 0  XYZ
  end
  begin
     id 2 
     name lfemur
     direction 0.34202 -0.939693 0  
     length 7.26371  
     axis 0 0 20  XYZ
    dof rx ry rz
    limits (-160.0 20.0)
           (-70.0 70.0)
           (-60.0 70.0)
  end
  begin
     id 3 
     name ltibia
     direction 0.34202 -0.939693 0   
     length 7.88616   
     axis 0 0 20   XYZ
    dof rx
    limits (-10.0 170.0)
  end
  begin
     id 4 
     name lfoot
     direction 0.0603448 -0.165796 0.984312   
     length 1.77861   
     axis -90 7.62852e-016 20   XYZ
    dof rx rz
    limits (-45.0 90.0)
           (-70.0 20.0)
  end
  begin
     id 5 
     name ltoes
     direction 1.53577e-011 -4.21876e-011 1   
     length 0.902235   
     axis -90 7.62852e-016 20   XYZ
    dof rx
    limits (-90.0 20.0)
  end
  begin
     id 6 
     name rhipjoint
     direction -0.656778 -0.61817 0.431866   
     length 2.9117  
     axis 0 0 0  XYZ 
  end
  begin
     id 7 
     name rfemur
     direction -0.34202 -0.939693 0   
     length 6.81603   
     axis 0 0 -20   XYZ
    dof rx ry rz
    limits (-160.0 20.0)
           (-70.0 70.0)
           (-70.0 60.0)
  end
  begin
     id 8 
     name rtibia
     direction -0.34202 -0.939693 0   
     length 8.05997   
     axis 0 0 -20   XYZ
    dof rx
    limits (-10.0 170.0)
 end
 begin
     id 9 
     name rfoot
     direction -0.0862404 -0.236944 0.967688   
     length 1.84899  
     axis -90 -7.62852e-016 -20   XYZ
    dof rx rz
    limits (-45.0 90.0)
           (-20.0 70.0)
  end
  begin
     id 10 
     name rtoes
     direction -1.53561e-011 -4.21798e-011 1   
     length 0.931579   
     axis -90 -7.62852e-016 -20   XYZ
    dof rx
    limits (-90.0 20.0)
  end
  begin
     id 11 
     name lowerback
     direction -0.0110203 0.991769 -0.127564   
     length 2.05686   
     axis 0 0 0   XYZ
    dof rx ry rz
    limits (-20.0 45.0)
           (-30.0 30.0)
           (-30.0 30.0)
  end
  begin
     id 12 
     name upperback
     direction 0.0109719 0.99993 -0.00432479   
     length 2.06234   
     axis 0 0 0   XYZ
    dof rx ry rz
    limits (-20.0 45.0)
           (-30.0 30.0)
           (-30.0 30.0)
  end
  begin
     id 13 
     name thorax
     direction 0.0173308 0.998351 0.0547306   
     length 2.09856   
     axis 0 0 0   XYZ
    dof rx ry rz
    limits (-20.0 45.0)
           (-30.0 30.0)
           (-30.0 30.0)
  end
  begin
     id 14 
     name lowerneck
     direction -0.0311736 0.989033 0.144366   
     length 1.98151   
     axis 0 0 0   XYZ
    dof rx ry rz
    limits (-20.0 45.0)
           (-30.0 30.0)
           (-30.0 30.0)
  end
  begin
     id 15 
     name upperneck
     direction 0.0421057 0.975772 -0.214698   
     length 2.01457   
     axis 0 0 0   XYZ
    dof rx ry rz
    limits (-20.0 45.0)
           (-30.0 30.0)
           (-30.0 30.0)
  end
  begin
     id 16
     name head
     direction 0.0136911 0.995958 -0.0887718  
     length 2.03562  
     axis 0 0 0   XYZ
    dof rx ry rz
    limits (-20.0 45.0)
           (-30.0 30.0)
           (-30.0 30.0)
  end
  begin
     id 17 
     name lclavicle
     direction 0.915335 0.396201 0.0720134  
     length 4.16217  
     axis 0 0 0   XYZ
    dof ry rz
    limits (-20.0 10.0)
           (0.0 20.0)
  end
  begin
     id 18 
     name lhumerus
     direction 1 -4.48965e-011 6.383e-018   
     length 4.93042   
     axis -180 -30 -90   XYZ
    dof rx ry rz
    limits (-60.0 90.0)
           (-90.0 90.0)
           (-90.0 90.0)
  end
  begin
     id 19
     name lradius
     direction 1 -4.48972e-011 8.8689e-027   
     length 3.68177   
     axis -180 -30 -90   XYZ
    dof rx
    limits (-10.0 170.0)
  end
  begin
     id 20
     name lwrist
     direction 1 -4.48953e-011 1.17971e-026   
     length 1.84089   
     axis -7.69454e-015 90 90   XYZ
    dof ry
    limits (-180.0 0.0)
 end
  begin
     id 21 
     name lhand
     direction 1 -4.49027e-011 2.35802e-026   
     length 0.721479   
     axis -1.50533e-014 90 90   XYZ
    dof rx rz
    limits (-90.0 90.0)
           (-45.0 45.0)
  end
  begin
     id 22 
     name lfingers
     direction 1 -4.48915e-011 4.72027e-026   
     length 0.581675   
     axis -3.01059e-014 90 90   XYZ
    dof rx
    limits (0.0 90.0)
  end
  begin
     id 23
     name lthumb
     direction 0.707107 -6.34948e-011 0.707107   
     length 0.835172   
     axis -90 45 -5.12164e-014   XYZ
    dof rx rz
    limits (-45.0 45.0)
           (-45.0 45.0)
  end
  begin
     id 24 
     name rclavicle
     direction -0.882781 0.469197 0.0234974   
     length 3.95647  
     axis 0 0 0   XYZ 
    dof ry rz
    limits (-10.0 20.0)
           (-20.0 0.0)
  end
  begin
     id 25 
     name rhumerus
     direction -1 -4.48965e-011 -1.54906e-018  
     length 5.07905   
     axis -180 30 90   XYZ
    dof rx ry rz
    limits (-90.0 60.0)
           (-90.0 90.0)
           (-90.0 90.0)
  end
  begin
     id 26 
     name rradius
     direction -1 -4.48972e-011 5.47489e-027   
     length 3.54394   
     axis -180 30 90   XYZ
    dof rx
    limits (-10.0 170.0)
  end
  begin
     id 27 
     name rwrist
     direction -1 -4.48955e-011 1.17969e-026   
     length 1.77197   
     axis -7.69454e-015 -90 -90   XYZ
    dof ry
    limits (-180.0 0.0)
  end
  begin
     id 28
     name rhand
     direction -1 -4.48982e-011 2.35888e-026   
     length 0.681156   
     axis -1.50533e-014 -90 -90   XYZ
    dof rx rz
    limits (-90.0 90.0)
           (-45.0 45.0)
  end
  begin
     id 29
     name rfingers
     direction -1 -4.48955e-011 4.71877e-026   
     length 0.549165   
     axis -3.01059e-014 -90 -90   XYZ
    dof rx
    limits (0.0 90.0)
  end
  begin
     id 30
     name rthumb
     direction -0.707107 -6.3491e-011 0.707107   
     length 0.788495   
     axis -90 -45 5.12164e-014   XYZ
    dof rx rz
    limits (-45.0 45.0)
           (-45.0 45.0)
  end
:hierarchy
  begin
    root lhipjoint rhipjoint lowerback
    lhipjoint lfemur
    lfemur ltibia
    ltibia lfoot
    lfoot ltoes
    rhipjoint rfemur
    rfemur rtibia
    rtibia rfoot
    rfoot rtoes
    lowerback upperback
    upperback thorax
    thorax lowerneck lclavicle rclavicle
    lowerneck upperneck
    upperneck head
    lclavicle lhumerus
    lhumerus lradius
    lradius lwrist
    lwrist lhand lthumb
    lhand lfingers
    rclavicle rhumerus
    rhumerus rradius
    rradius rwrist
    rwrist rhand rthumb
    rhand rfingers
  end

#!OML:ASF H:\Bending\Project 1\Capture day 1\Session 1\Subject.ASF
:FULLY-SPECIFIED
:DEGREES
335
root -10.7825 18.0345 -16.5199 -154.976 85.467 -160.704
lowerback 5.60534 0.0300355 1.1169
upperback -2.28639 0.254478 1.9767
thorax -5.52631 0.133871 1.39981
lowerneck -24.3223 -4.45913 -6.55701
upperneck 30.8037 -4.55439 3.33531
head 15.0722 -2.06369 1.64245
rclavicle -9.93923e-016 -1.39149e-014
rhumerus -48.136 -0.398477 -79.3705
rradius 41.8272
rwrist 2.91307
rhand -22.4064 -24.3007
rfingers 7.12502
rthumb 4.01634 -54.2426
lclavicle -9.93923e-016 -1.39149e-014
lhumerus -43.7554 1.46273 89.1876
lradius 39.232
lwrist 34.5293
lhand -34.4029 9.29785
lfingers 7.12502
lthumb -7.56844 39.1424
rfemur 3.30136 -1.87244 16.2773
rtibia 6.36111e-015
rfoot -11.8021 -17.2598
rtoes 16.8126
lfemur -11.0353 -25.2621 -11.1754
ltibia 22.5234
lfoot -26.8397 15.2043
ltoes 16.7632
336
root -10.7875 18.0369 -16.5218 -155.049 85.5137 -160.746
lowerback 5.63518 -0.000249349 1.06594
upperback -2.26646 0.210032 1.98039
thorax -5.52187 0.113594 1.43684
lowerneck -24.3661 -4.41626 -6.58539
upperneck 30.8974 -4.46367 3.3059
head 15.1191 -2.03209 1.65432
rclavicle 1.29707e-014 -1.11319e-014
rhumerus -48.082 -0.427241 -79.2928
rradius 41.4362
rwrist 3.00145
rhand -22.5306 -24.3057
rfingers 7.12502
rthumb 3.89644 -54.2498
lclavicle 1.29707e-014 -1.11319e-014
lhumerus -43.6028 1.76148 89.0746
lradius 38.8037
lwrist 34.1692
lhand -34.276 9.25544
lfingers 7.12502
lthumb -7.44602 39.1044
rfemur 3.28464 -1.82935 16.2628
rtibia -3.18055e-015
rfoot -11.596 -17.3669
rtoes 15.938
lfemur -10.973 -25.0841 -11.2138
ltibia 22.4511
lfoot -26.6979 15.1073
ltoes 16.7713
337
root -10.7918 18.0408 -16.5219 -154.495 85.5883 -160.165
lowerback 5.66261 -0.00450035 1.02735
upperback -2.24203 0.201924 1.99426
thorax -5.51194 0.111122 1.47373
lowerneck -24.3983 -4.40408 -6.66454
upperneck 30.9696 -4.41563 3.32601
head 15.1598 -2.01766 1.68675
rclavicle -1.73937e-015 7.55382e-015
rhumerus -48.0742 -0.393806 -79.2347
rradius 41.1294
rwrist 3.0231
rhand -22.8105 -24.4732
rfingers 7.12502
rthumb 3.62606 -54.4221
lclavicle -1.73937e-015 7.55382e-015
lhumerus -43.4734 1.88684 89.0352
lradius 38.4271
lwrist 33.9477
lhand -34.1766 9.24813
lfingers 7.12502
lthumb -7.35004 39.1005
rfemur 3.25548 -1.74098 16.292
rtibia -7.95139e-015
rfoot -11.3532 -17.4702
rtoes 14.8862
lfemur -10.8904 -24.9214 -11.2131
ltibia 22.3599
lfoot -26.603 15.0469
ltoes 16.8469
338
root -10.7957 18.0445 -16.5205 -153.41 85.6801 -159.055
lowerback 5.69239 0.0149648 1.00911
upperback -2.2145 0.227163 2.00799
thorax -5.50068 0.124435 1.49557
lowerneck -24.401 -4.41899 -6.77515
upperneck 31.0006 -4.41308 3.39106
head 15.1804 -2.02012 1.7339
rclavicle 3.35449e-015 -3.57812e-015
rhumerus -48.1153 -0.341656 -79.1959
rradius 40.9005
rwrist 3.02213
rhand -23.1611 -24.7246
rfingers 7.12502
rthumb 3.28755 -54.679
lclavicle 3.35449e-015 -3.57812e-015
lhumerus -43.3709 1.82405 89.0669
lradius 38.1038
lwrist 33.8719
lhand -34.1309 9.27428
lfingers 7.12502
lthumb -7.30595 39.1282
rfemur 3.22059 -1.61981 16.3542
rtibia -4.77083e-015
rfoot -11.1403 -17.5515
rtoes 14.0386
lfemur -10.8048 -24.7772 -11.1808
ltibia 22.2841
lfoot -26.5601 15.0154
ltoes 16.9492
339
root -10.7993 18.0463 -16.5181 -152.031 85.7734 -157.652
lowerback 5.72544 0.0477355 1.00719
upperback -2.1879 0.271168 2.01465
thorax -5.49253 0.146301 1.49893
lowerneck -24.3688 -4.44584 -6.88087
upperneck 30.9885 -4.43976 3.47392
head 15.1757 -2.03221 1.78146
rclavicle -4.96962e-017 -1.90833e-014
rhumerus -48.1923 -0.326933 -79.1608
rradius 40.7207
rwrist 3.06334
rhand -23.4514 -24.9314
rfingers 7.12502
rthumb 3.00714 -54.89
lclavicle -4.96962e-017 -1.90833e-014
lhumerus -43.2801 1.65139 89.131
lradius 37.7921
lwrist 33.8533
lhand -34.1314 9.3184
lfingers 7.12502
lthumb -7.30644 39.1722
rfemur 3.18307 -1.48748 16.4312
rtibia -1.43125e-014
rfoot -11.0009 -17.6079
rtoes 13.6447
lfemur -10.7359 -24.658 -11.1306
ltibia 22.248
lfoot -26.5633 15.0047
ltoes 17.0504
340
root -10.8024 18.0461 -16.5152 -150.663 85.8561 -156.265
lowerback 5.75827 0.0806145 1.00845
upperback -2.16727 0.315142 2.01223
thorax -5.49043 0.167836 1.49106
lowerneck -24.3101 -4.46445 -6.94113
upperneck 30.95 -4.46785 3.53503
head 15.1509 -2.04295 1.8117
rclavicle 1.50082e-014 1.59028e-015
rhumerus -48.2798 -0.400614 -79.102
rradius 40.5452
rwrist 3.21262
rhand -23.5594 -24.9606
rfingers 7.12502
rthumb 2.9029 -54.9206
lclavicle 1.50082e-014 1.59028e-015
lhumerus -43.1722 1.48833 89.1762
lradius 37.4264
lwrist 33.7617
lhand -34.1459 9.35869
lfingers 7.12502
lthumb -7.32037 39.2121
rfemur 3.14311 -1.36526 16.5034
rtibia 4.77083e-015
rfoot -10.942 -17.6447
rtoes 13.7239
lfemur -10.6943 -24.5683 -11.0788
ltibia 22.2514
lfoot -26.5948 15.01
ltoes 17.1365
341
root -10.8049 18.045 -16.5124 -149.579 85.924 -155.173
lowerback 5.78522 0.103267 0.997682
upperback -2.15661 0.344121 2.00261
thorax -5.49516 0.182216 1.48407
lowerneck -24.2414 -4.45791 -6.92722
upperneck 30.9107 -4.47001 3.53893
head 15.1174 -2.04225 1.81067
rclavicle 1.16041e-014 -3.18055e-014
rhumerus -48.352 -0.586209 -78.9941
rradius 40.3325
rwrist 3.50871
rhand -23.423 -24.7294
rfingers 7.12502
rthumb 3.03463 -54.6876
lclavicle 1.16041e-014 -3.18055e-014
lhumerus -43.0169 1.42959 89.1651
lradius 36.947
lwrist 33.4963
lhand -34.1375 9.37598
lfingers 7.12502
lthumb -7.31226 39.2296
rfemur 3.10012 -1.26692 16.5544
rtibia 1.59028e-015
rfoot -10.9375 -17.6682
rtoes 14.0808
lfemur -10.6761 -24.5059 -11.0395
ltibia 22.2686
lfoot -26.6278 15.0281
ltoes 17.2054
342
root -10.8064 18.0446 -16.5102 -148.919 85.9784 -154.518
lowerback 5.80183 0.111294 0.966688
upperback -2.15771 0.351753 1.98976
thorax -5.50598 0.186687 1.48735
lowerneck -24.1768 -4.41912 -6.83492
upperneck 30.8919 -4.43034 3.46971
head 15.0865 -2.02496 1.77445
rclavicle 2.06239e-015 -1.74931e-014
rhumerus -48.396 -0.862715 -78.8289
rradius 40.0639
rwrist 3.93932
rhand -23.0625 -24.2443
rfingers 7.12502
rthumb 3.3827 -54.1973
lclavicle 2.06239e-015 -1.74931e-014
lhumerus -42.7959 1.50266 89.0909
lradius 36.3266
lwrist 33.0352
lhand -34.0818 9.36082
lfingers 7.12502
lthumb -7.25855 39.2163
rfemur 3.05464 -1.19693 16.5763
rtibia 7.95139e-015
rfoot -10.9439 -17.6827
rtoes 14.4125
lfemur -10.6678 -24.4611 -11.02
ltibia 22.2638
lfoot -26.6351 15.0565
ltoes 17.2493
343
root -10.8069 18.0464 -16.5087 -148.666 86.0216 -154.286
lowerback 5.80763 0.106276 0.918065
upperback -2.16971 0.340588 1.97738
thorax -5.5218 0.182528 1.50307
lowerneck -24.1213 -4.35287 -6.68709
upperneck 30.9006 -4.34968 3.33861
head 15.0639 -1.99241 1.71155
rclavicle 1.31695e-015 1.03368e-014
rhumerus -48.4188 -1.16549 -78.6239
rradius 39.7537
rwrist 4.43601
rhand -22.5663 -23.6031
rfingers 7.12502
rthumb 3.86189 -53.5479
lclavicle 1.31695e-015 1.03368e-014
lhumerus -42.5092 1.66772 88.9759
lradius 35.58
lwrist 32.438
lhand -33.9751 9.31318
lfingers 7.12502
lthumb -7.15553 39.1722
rfemur 3.00897 -1.15281 16.571
rtibia -6.36111e-015
rfoot -10.9226 -17.6913
rtoes 14.4631
lfemur -10.6548 -24.4264 -11.0192
ltibia 22.2119
lfoot -26.6043 15.0915
ltoes 17.2741
